<svg xmlns="http://www.w3.org/2000/svg" width="129" height="122.021" viewBox="0 0 129 122.021">
  <g id="Group_37" data-name="Group 37" transform="translate(1 -2.979)">
    <g id="Path_118" data-name="Path 118" transform="translate(-1 3)" fill="rgba(255,255,255,0.17)">
      <path d="M64.5,0C100.122,0,129,27.311,129,61s-28.878,61-64.5,61S0,94.689,0,61,28.878,0,64.5,0Z" stroke="none"/>
      <path d="M 64.5 1 C 55.92034912109375 1 47.59832000732422 2.588768005371094 39.76508331298828 5.722152709960938 C 36.00129699707031 7.227714538574219 32.37126922607422 9.091102600097656 28.97585296630859 11.26051330566406 C 25.61344909667969 13.40885162353516 22.45179748535156 15.87586975097656 19.5787353515625 18.59303283691406 C 16.70663452148438 21.30926513671875 14.09934997558594 24.29779815673828 11.82929992675781 27.47560119628906 C 9.538414001464844 30.68253326416016 7.570968627929688 34.11051940917969 5.981597900390625 37.66431427001953 C 2.676048278808594 45.055419921875 1 52.90666961669922 1 61 C 1 69.09333801269531 2.676048278808594 76.944580078125 5.981597900390625 84.33567810058594 C 7.570968627929688 87.88948059082031 9.538414001464844 91.31746673583984 11.82929992675781 94.52439880371094 C 14.09934997558594 97.70220184326172 16.70663452148438 100.6907348632813 19.5787353515625 103.4069671630859 C 22.45179748535156 106.1241302490234 25.61344909667969 108.5911483764648 28.97585296630859 110.7394866943359 C 32.37126922607422 112.9088973999023 36.00129699707031 114.7722854614258 39.76508331298828 116.2778472900391 C 47.59832000732422 119.4112319946289 55.92034912109375 121 64.5 121 C 73.07965087890625 121 81.40167236328125 119.4112319946289 89.23490142822266 116.2778472900391 C 92.99870300292969 114.7722854614258 96.62871551513672 112.9088973999023 100.0241546630859 110.7394866943359 C 103.3865509033203 108.5911483764648 106.5481872558594 106.1241302490234 109.4212646484375 103.4069671630859 C 112.2933502197266 100.6907196044922 114.9006500244141 97.70220184326172 117.1707000732422 94.52439880371094 C 119.4615631103516 91.31746673583984 121.4290313720703 87.88948059082031 123.0184020996094 84.33567810058594 C 126.3239517211914 76.944580078125 128 69.09333801269531 128 61 C 128 52.90666961669922 126.3239517211914 45.055419921875 123.0184020996094 37.66431427001953 C 121.4290313720703 34.11051940917969 119.4615631103516 30.68253326416016 117.1707000732422 27.47560119628906 C 114.9006500244141 24.29779815673828 112.2933502197266 21.30928039550781 109.4212646484375 18.59303283691406 C 106.5481872558594 15.87586975097656 103.3865509033203 13.40885162353516 100.0241546630859 11.26051330566406 C 96.62871551513672 9.091102600097656 92.99870300292969 7.227714538574219 89.23490142822266 5.722152709960938 C 81.40167236328125 2.588768005371094 73.07965087890625 1 64.5 1 M 64.5 0 C 100.1223526000977 0 129 27.31063079833984 129 61 C 129 94.68936920166016 100.1223526000977 122 64.5 122 C 28.87763214111328 122 0 94.68936920166016 0 61 C 0 27.31063079833984 28.87763214111328 0 64.5 0 Z" stroke="none" fill="rgba(232,232,234,0.31)"/>
    </g>
    <path id="robot" d="M59.638.987c-3.184.043-5.726,2.289-5.683,5.022v10.3c-19.491,2.433-34.637,16.915-34.637,34.28v4.954C9.82,55.546,2,62.256,2,70.408V90.223H13.546V70.408c0-2.747,2.571-4.954,5.773-4.954V85.269c0,8.151,7.82,14.861,17.318,14.861h6.855c2.409,5.734,8.769,9.908,16.236,9.908s13.827-4.174,16.236-9.908h6.855c9.5,0,17.318-6.71,17.318-14.861V65.454c3.2,0,5.773,2.207,5.773,4.954V90.223h11.546V70.408c0-8.151-7.819-14.861-17.318-14.861V50.592c0-17.365-15.145-31.847-34.637-34.28V6.008a4.619,4.619,0,0,0-1.694-3.574A6.3,6.3,0,0,0,59.638.987Zm-.587,24.866a6.722,6.722,0,0,0,1.4,0c15.567.334,28.142,11.3,28.142,24.74,0,2.747-2.572,4.954-5.773,4.954H36.637c-3.2,0-5.773-2.207-5.773-4.954C30.864,37.143,43.464,26.166,59.051,25.852ZM42.409,40.685c-3.188,0-5.773,2.218-5.773,4.954s2.585,4.954,5.773,4.954,5.773-2.218,5.773-4.954S45.6,40.685,42.409,40.685Zm34.637,0c-3.188,0-5.773,2.218-5.773,4.954s2.585,4.954,5.773,4.954,5.773-2.218,5.773-4.954S80.234,40.685,77.046,40.685ZM30.864,64.525a19.451,19.451,0,0,0,5.773.929H82.819a19.452,19.452,0,0,0,5.773-.929V85.269c0,2.747-2.572,4.954-5.773,4.954H36.637c-3.2,0-5.773-2.207-5.773-4.954Z" transform="translate(3.489 1.993)" fill="#0483ff"/>
  </g>
</svg>
